HIERARCHY
ROOT ui
{
	 OFFSET 0 0 0
	 CHANNELS 3 XPosition YPosition Z Position
	 EndSite
	 {
	 OFFSET 0 -1 0
	 }
}
ROOT li
{
	 OFFSET 0 0 0
	 CHANNELS 3 XPosition YPosition Z Position
	 EndSite
	 {
	 OFFSET 0 -1 0
	 }
}
ROOT ul
{
	 OFFSET 0 0 0
	 CHANNELS 3 XPosition YPosition Z Position
	 EndSite
	 {
	 OFFSET 0 -1 0
	 }
}
ROOT ll
{
	 OFFSET 0 0 0
	 CHANNELS 3 XPosition YPosition Z Position
	 EndSite
	 {
	 OFFSET 0 -1 0
	 }
}
ROOT tt
{
	 OFFSET 0 0 0
	 CHANNELS 3 XPosition YPosition Z Position
	 EndSite
	 {
	 OFFSET 0 -1 0
	 }
}
ROOT tb
{
	 OFFSET 0 0 0
	 CHANNELS 3 XPosition YPosition Z Position
	 EndSite
	 {
	 OFFSET 0 -1 0
	 }
}
ROOT td
{
	 OFFSET 0 0 0
	 CHANNELS 3 XPosition YPosition Z Position
	 EndSite
	 {
	 OFFSET 0 -1 0
	 }
}
ROOT v
{
	 OFFSET 0 0 0
	 CHANNELS 3 XPosition YPosition Z Position
	 EndSite
	 {
	 OFFSET 0 -1 0
	 }
}
ROOT bn
{
	 OFFSET 0 0 0
	 CHANNELS 3 XPosition YPosition Z Position
	 EndSite
	 {
	 OFFSET 0 -1 0
	 }
}
MOTION
Frames: 10
Frame Time: 0.002
-0.00841586971282959	-3.261379897594452E-4	0		0.4726570739746094	-2.400591552734375	0		-0.98804052734375	-0.03605424118041992	0		-0.7506244506835937	-2.273751708984375	0		1.5108094482421874	-0.6135303344726563	0		3.210038330078125	-0.061233890533447265	0		4.67472802734375	-0.024574356079101564	0		5.64014697265625	0.13437385559082032	0		-0.04357928848266602	5.95881884765625	0		
0.04188762283325195	-0.0021422839164733885	0		0.48009912109375	-2.4087373046875	0		-1.0506492919921875	-0.031331352233886715	0		-0.7480205688476562	-2.2699462890625	0		1.492252685546875	-0.6091992797851562	0		3.213265869140625	-0.06805348968505859	0		4.66593896484375	-0.03207651901245117	0		5.64844140625	0.1337195587158203	0		-0.06083868408203125	5.95896923828125	0		
-0.008766837120056152	0.0025011420249938963	0		0.457741943359375	-2.39945556640625	0		-1.0473209228515625	-0.028567955017089842	0		-0.7375956420898437	-2.27525390625	0		1.4966932373046875	-0.60220947265625	0		3.24091162109375	-0.043233043670654295	0		4.6634404296875	-0.016685861587524414	0		5.650826171875	0.14213223266601563	0		-0.06312114334106446	5.9588984375	0		
0.04249962615966797	0.0016775150299072265	0		0.5101542663574219	-2.405250732421875	0		-0.974053955078125	-0.029799949645996093	0		-0.7490166015625	-2.268244140625	0		1.4950198974609374	-0.6021395263671875	0		3.188935302734375	-0.06028889465332031	0		4.66961328125	-0.02344285011291504	0		5.64498583984375	0.13563607788085938	0		-0.07028788757324218	5.96589794921875	0		
-0.012207894325256348	0.002368675947189331	0		0.5045901184082031	-2.409215087890625	0		-0.9857489013671875	-0.02880630111694336	0		-0.6786284790039062	-2.275395263671875	0		1.5082432861328126	-0.6102896118164063	0		3.214324462890625	-0.05346659851074219	0		4.66790234375	-0.023110141754150392	0		5.6332626953125	0.13619395446777344	0		-0.06776524353027344	5.9477578125	0		
0.035054931640625	-0.0023884360790252684	0		0.5010630798339843	-2.412211181640625	0		-0.9865494384765625	-0.03796199417114258	0		-0.7560880737304687	-2.272440185546875	0		1.4856322021484376	-0.6089381103515625	0		3.201555419921875	-0.060120479583740234	0		4.666228515625	-0.022805015563964845	0		5.6274775390625	0.12963270568847657	0		-0.10399308013916016	5.94216845703125	0		
-0.018545520782470702	-7.184439897537231E-4	0		0.4746910400390625	-2.40688720703125	0		-0.9831107788085938	-0.03416741561889648	0		-0.7185468139648438	-2.273106201171875	0		1.484056640625	-0.6088934936523438	0		3.2162333984375	-0.039178226470947264	0		4.67358154296875	-0.02465583610534668	0		5.63993115234375	0.1357805938720703	0		-0.09089101409912109	5.95288623046875	0		
0.035943042755126955	0.0014353679418563842	0		0.47532901000976563	-2.404945556640625	0		-1.0555936279296876	-0.029300790786743164	0		-0.7548860473632812	-2.268725830078125	0		1.485604248046875	-0.6048997192382812	0		3.19839599609375	-0.05980247116088867	0		4.6671474609375	-0.01634100914001465	0		5.63837451171875	0.1360897674560547	0		-0.07766378021240235	5.964607421875	0		
0.03447985076904297	0.0013783539533615112	0		0.47400741577148436	-2.4049765625	0		-0.982062255859375	-0.03046661376953125	0		-0.7192471313476563	-2.271344482421875	0		1.481121337890625	-0.6088292846679687	0		3.22403125	-0.053050128936767575	0		4.66160205078125	-0.0220692195892334	0		5.632029296875	0.1454311828613281	0		-0.06056326675415039	5.95827978515625	0		
0.029054033279418946	-0.002620332956314087	0		0.4618463745117187	-2.398856201171875	0		-1.0634652099609374	-0.03246379852294922	0		-0.7594956665039062	-2.27089697265625	0		1.479782470703125	-0.6088084716796875	0		3.211567138671875	-0.05978524780273437	0		4.660232421875	-0.021882761001586915	0		5.63553955078125	0.13759957885742188	0		-0.09632424926757813	5.95269287109375	0		
